<svg width="22" height="22" viewBox="0 0 22 22" fill="none" xmlns="http://www.w3.org/2000/svg">
<circle cx="11" cy="11" r="10" stroke="white" stroke-width="2"/>
<path d="M11.8438 16H9.86133V8.60352H11.8438V16ZM9.74512 6.68945C9.74512 6.39323 9.8431 6.14941 10.0391 5.95801C10.2396 5.7666 10.5107 5.6709 10.8525 5.6709C11.1898 5.6709 11.4587 5.7666 11.6592 5.95801C11.8597 6.14941 11.96 6.39323 11.96 6.68945C11.96 6.99023 11.8574 7.23633 11.6523 7.42773C11.4518 7.61914 11.1852 7.71484 10.8525 7.71484C10.5199 7.71484 10.251 7.61914 10.0459 7.42773C9.84538 7.23633 9.74512 6.99023 9.74512 6.68945Z" fill="white"/>
</svg>
